<?xml version="1.0" encoding="UTF-8" standalone="no"?>
<!DOCTYPE svg PUBLIC "-//W3C//DTD SVG 1.1//EN"
 "http://www.w3.org/Graphics/SVG/1.1/DTD/svg11.dtd">
<!-- Generated by graphviz version 8.1.0 (20230707.0739)
 -->
<!-- Pages: 1 -->
<svg width="300pt" height="456pt"
 viewBox="0.00 0.00 299.88 456.00" xmlns="http://www.w3.org/2000/svg" xmlns:xlink="http://www.w3.org/1999/xlink">
<g id="graph0" class="graph" transform="scale(1 1) rotate(0) translate(4 452)">
<polygon fill="white" stroke="none" points="-4,4 -4,-452 295.88,-452 295.88,4 -4,4"/>
<!-- 5 -->
<g id="node1" class="node">
<title>5</title>
<g id="a_node1"><a xlink:title="euler_7.py">
<polygon fill="#ee6d03" stroke="#ee6d03" points="124.38,-154 28.88,-154 28.88,-98 124.38,-98 124.38,-154"/>
<text text-anchor="middle" x="76.62" y="-140.5" font-family="Arial" font-size="10.00" fill="#ffffff">euler_7:7:is_prime</text>
<text text-anchor="middle" x="76.62" y="-128.5" font-family="Arial" font-size="10.00" fill="#ffffff">88.65%</text>
<text text-anchor="middle" x="76.62" y="-116.5" font-family="Arial" font-size="10.00" fill="#ffffff">(86.73%)</text>
<text text-anchor="middle" x="76.62" y="-104.5" font-family="Arial" font-size="10.00" fill="#ffffff">350375×</text>
</a>
</g>
</g>
<!-- 103 -->
<g id="node2" class="node">
<title>103</title>
<g id="a_node2"><a xlink:title="~">
<polygon fill="#0d1575" stroke="#0d1575" points="153.25,-56 0,-56 0,0 153.25,0 153.25,-56"/>
<text text-anchor="middle" x="76.62" y="-42.5" font-family="Arial" font-size="10.00" fill="#ffffff">~:0:&lt;built&#45;in method math.sqrt&gt;</text>
<text text-anchor="middle" x="76.62" y="-30.5" font-family="Arial" font-size="10.00" fill="#ffffff">1.92%</text>
<text text-anchor="middle" x="76.62" y="-18.5" font-family="Arial" font-size="10.00" fill="#ffffff">(1.92%)</text>
<text text-anchor="middle" x="76.62" y="-6.5" font-family="Arial" font-size="10.00" fill="#ffffff">350375×</text>
</a>
</g>
</g>
<!-- 5&#45;&gt;103 -->
<g id="edge1" class="edge">
<title>5&#45;&gt;103</title>
<path fill="none" stroke="#0d1575" stroke-width="0.5" d="M76.62,-97.75C76.62,-85.89 76.62,-71.94 76.62,-59.72"/>
<polygon fill="#0d1575" stroke="#0d1575" stroke-width="0.5" points="77.85,-59.82 76.62,-56.32 75.4,-59.82 77.85,-59.82"/>
<text text-anchor="middle" x="95.38" y="-79.5" font-family="Arial" font-size="10.00" fill="#0d1575">1.92%</text>
<text text-anchor="middle" x="95.38" y="-67.5" font-family="Arial" font-size="10.00" fill="#0d1575">350375×</text>
</g>
<!-- 6 -->
<g id="node3" class="node">
<title>6</title>
<g id="a_node3"><a xlink:title="euler_7.py">
<polygon fill="#ff0100" stroke="#ff0100" points="219.38,-252 69.88,-252 69.88,-196 219.38,-196 219.38,-252"/>
<text text-anchor="middle" x="144.62" y="-238.5" font-family="Arial" font-size="10.00" fill="#ffffff">euler_7:15:get_prime_numbers</text>
<text text-anchor="middle" x="144.62" y="-226.5" font-family="Arial" font-size="10.00" fill="#ffffff">99.87%</text>
<text text-anchor="middle" x="144.62" y="-214.5" font-family="Arial" font-size="10.00" fill="#ffffff">(9.41%)</text>
<text text-anchor="middle" x="144.62" y="-202.5" font-family="Arial" font-size="10.00" fill="#ffffff">1×</text>
</a>
</g>
</g>
<!-- 6&#45;&gt;5 -->
<g id="edge2" class="edge">
<title>6&#45;&gt;5</title>
<path fill="none" stroke="#ee6d03" stroke-width="3.55" d="M125.32,-195.75C118.72,-186.42 111.2,-175.81 104.08,-165.75"/>
<polygon fill="#ee6d03" stroke="#ee6d03" stroke-width="3.55" points="107.1,-164.09 98.98,-158.32 101.73,-167.89 107.1,-164.09"/>
<text text-anchor="middle" x="138.38" y="-177.5" font-family="Arial" font-size="10.00" fill="#ee6d03">88.65%</text>
<text text-anchor="middle" x="138.38" y="-165.5" font-family="Arial" font-size="10.00" fill="#ee6d03">350375×</text>
</g>
<!-- 45 -->
<g id="node4" class="node">
<title>45</title>
<g id="a_node4"><a xlink:title="~">
<polygon fill="#0d1475" stroke="#0d1475" points="291.88,-154 133.38,-154 133.38,-98 291.88,-98 291.88,-154"/>
<text text-anchor="middle" x="212.62" y="-140.5" font-family="Arial" font-size="10.00" fill="#ffffff">~:0:&lt;built&#45;in method builtins.len&gt;</text>
<text text-anchor="middle" x="212.62" y="-128.5" font-family="Arial" font-size="10.00" fill="#ffffff">1.68%</text>
<text text-anchor="middle" x="212.62" y="-116.5" font-family="Arial" font-size="10.00" fill="#ffffff">(1.68%)</text>
<text text-anchor="middle" x="212.62" y="-104.5" font-family="Arial" font-size="10.00" fill="#ffffff">350380×</text>
</a>
</g>
</g>
<!-- 6&#45;&gt;45 -->
<g id="edge3" class="edge">
<title>6&#45;&gt;45</title>
<path fill="none" stroke="#0d1475" stroke-width="0.5" d="M163.93,-195.75C172.47,-183.69 182.55,-169.46 191.31,-157.09"/>
<polygon fill="#0d1475" stroke="#0d1475" stroke-width="0.5" points="192.25,-157.89 193.27,-154.32 190.25,-156.47 192.25,-157.89"/>
<text text-anchor="middle" x="206.38" y="-177.5" font-family="Arial" font-size="10.00" fill="#0d1475">1.68%</text>
<text text-anchor="middle" x="206.38" y="-165.5" font-family="Arial" font-size="10.00" fill="#0d1475">350376×</text>
</g>
<!-- 7 -->
<g id="node5" class="node">
<title>7</title>
<g id="a_node5"><a xlink:title="euler_7.py">
<polygon fill="#ff0000" stroke="#ff0000" points="195.75,-350 93.5,-350 93.5,-294 195.75,-294 195.75,-350"/>
<text text-anchor="middle" x="144.62" y="-336.5" font-family="Arial" font-size="10.00" fill="#ffffff">euler_7:1:&lt;module&gt;</text>
<text text-anchor="middle" x="144.62" y="-324.5" font-family="Arial" font-size="10.00" fill="#ffffff">100.00%</text>
<text text-anchor="middle" x="144.62" y="-312.5" font-family="Arial" font-size="10.00" fill="#ffffff">(0.01%)</text>
<text text-anchor="middle" x="144.62" y="-300.5" font-family="Arial" font-size="10.00" fill="#ffffff">1×</text>
</a>
</g>
</g>
<!-- 7&#45;&gt;6 -->
<g id="edge4" class="edge">
<title>7&#45;&gt;6</title>
<path fill="none" stroke="#ff0100" stroke-width="3.99" d="M144.62,-293.75C144.62,-285.74 144.62,-276.78 144.62,-268.04"/>
<polygon fill="#ff0100" stroke="#ff0100" stroke-width="3.99" points="148.13,-268.32 144.62,-258.32 141.13,-268.32 148.13,-268.32"/>
<text text-anchor="middle" x="161.12" y="-275.5" font-family="Arial" font-size="10.00" fill="#ff0100">99.87%</text>
<text text-anchor="middle" x="161.12" y="-263.5" font-family="Arial" font-size="10.00" fill="#ff0100">1×</text>
</g>
<!-- 10 -->
<g id="node6" class="node">
<title>10</title>
<g id="a_node6"><a xlink:title="~">
<polygon fill="#ff0000" stroke="#ff0000" points="228,-448 61.25,-448 61.25,-392 228,-392 228,-448"/>
<text text-anchor="middle" x="144.62" y="-434.5" font-family="Arial" font-size="10.00" fill="#ffffff">~:0:&lt;built&#45;in method builtins.exec&gt;</text>
<text text-anchor="middle" x="144.62" y="-422.5" font-family="Arial" font-size="10.00" fill="#ffffff">100.00%</text>
<text text-anchor="middle" x="144.62" y="-410.5" font-family="Arial" font-size="10.00" fill="#ffffff">(0.00%)</text>
<text text-anchor="middle" x="144.62" y="-398.5" font-family="Arial" font-size="10.00" fill="#ffffff">2×</text>
</a>
</g>
</g>
<!-- 10&#45;&gt;7 -->
<g id="edge5" class="edge">
<title>10&#45;&gt;7</title>
<path fill="none" stroke="#ff0000" stroke-width="4" d="M144.62,-391.75C144.62,-383.74 144.62,-374.78 144.62,-366.04"/>
<polygon fill="#ff0000" stroke="#ff0000" stroke-width="4" points="148.13,-366.32 144.62,-356.32 141.13,-366.32 148.13,-366.32"/>
<text text-anchor="middle" x="163.75" y="-373.5" font-family="Arial" font-size="10.00" fill="#ff0000">100.00%</text>
<text text-anchor="middle" x="163.75" y="-361.5" font-family="Arial" font-size="10.00" fill="#ff0000">1×</text>
</g>
</g>
</svg>
